/* XPM */
static char *fe0cc40333b8444ab75f151b73f8da84CVaCS7tHTpOaKpks[] = {
/* columns rows colors chars-per-pixel */
"64 64 20 1 ",
"  c #010A07",
". c #020B06",
"X c #030C07",
"o c #020B08",
"O c #040A08",
"+ c #050B09",
"@ c #010C08",
"# c #030C09",
"$ c #020D09",
"% c #030E0A",
"& c #040D08",
"* c #050E09",
"= c #040D0A",
"- c #060C0A",
"; c #050E0B",
": c #040F0B",
"> c #060F0C",
", c #07100D",
"< c #08110E",
"1 c #09120F",
/* pixels */
",>;;;;;#o#;###;; o;;;;oo;;o;;o;;   #; ; oo; ;;;;;;o;; ;o ;;;;;;,",
">>;;;;##o##;###;;; ;;o;;o; ;;o;;; #  ;; ;; ;;;;;;;o;o;;o ;;;;;;;",
";;;#;#;#o#;###;;;  ;;; #;oo;;;o;o  # ;  oo; ;;;;;o;;;;;;;;;;;;;;",
";;#;#;o###o;##;#; ;oo;o   ;  ;o;; # ; ;#;; ;o;;; ;;o;;;;;,;;;;;;",
";;o;#;######;#;#o; ;;;;#   ; ; o;# # ;  oo; ;;;;;;;;;;;;><,;;;;;",
";#;#;;;#;####;;#;;;;o;  o;;  ;;;  # ; ;#;; ;;;;;o;;;;;;;<<;;;;,;",
";;;;;>;;##o##;##;;;o;;  ;o;;;;;o;  # ;  oo;o;;;;;;;;;;;;<<;;;;<>",
">;#;;>;;;#oo;;;#;o;;;o  ;o;o;o;;;   ; ;#;;  ;;;;;;,;;;;o<>,;;;<<",
";#;#;;;##;####;#;;ooo; ; # ;;;;  ; ; ; ; ; ;;o;;;;o;o;;;;;;;,;;;",
";;#;;;;;;######;o;;;; ;   o;o;o#; ; ; ; ; ; ;o;;;;;;;;;;;;;;;,;;",
";;;#;;;##;o###;#o;;; ; ;  o;;;   ; ; ; ; ; ;;;;;;;;o;oo;oo;;,;;;",
";##;;;;;;######;;;oo; ;  # ;;o;o; ; ; ; ; ; ;;;,;o;o;;;;;;;;;,;,",
";#;#;;;#;#####;#o;;; ; ;# ;o ;   ; ; ; ; ; ;;o;;;;; o;;;;;;;,;,;",
";;#;;;;;#;#####;;;o;; ; ;  ;; ;;; ; ; ; ; ; ;;;,;o;o ;;o;;;,<><<",
";#;#;;;#;#####;#;o;o ; ; ;;  ;o; ; ; ; ; ; ;oo;;;oo; ;o;o;;;><><",
";;#;;;;;#;#####;;o;;; ; ;o; ; ;;; ; ; ; ; ; ;;;;;;; ; ;;o;;;<><>",
";#;;;;;#;;;;;;;; oo;o;   # ; ;;o;; ;; ;; ;o;;;;,oo;;;;oo;;;;;>;,",
"#;;;;;#; ; o;  ; ; ;; #   ;o ;;o  ;# ;  ; ;;;;,;;;;oo;;;;;;;<<<<",
";#;;;;;#; ;# #;;; ;;;  #o; ;;;;;; #    ; ;;o;;;,;;;oo;;;;,;;<<<>",
";;;##;;;;;     ; ; ; ;# o;;;;;;; ; # #;o; ;;;;,;oo;;;;oo;;;;;;,;",
";;#;;#;;;;;  ;;; ; ;;  #;;oo;;;;;oo;; ;o ;;o;;;,;;o;;o;;;;;;;,;;",
";;;#o;;>;;;;ooo;; ;o ;# o;;;oo;;;;;  ;;;; ;;;;,;;o;;;;o;,;;<<<<,",
">;####;>;;o;; O; ;;;;  # ; ;o;; ;  ;; o; ;o;;;;,;;oooo;;;,<<<<;;",
">;;##;;>o;;;;   ; o; ;# ; ; ; o;o;    ; ;oo;;;,;o;;;;;;o;;;<<>; ",
";#;###;;####;OOO ;;o;  #  o;o;  &&&.&.&&;o;;;;,;;oo;;;;;;;,;,;;;",
"#;#;###;####OO;O; ;; ;# #; ;;;;o&& &.&&&;;;o,;;;;;;;;;;;;;;,;,;;",
";#;###;;,###O;OO ;o;; o  ;o;;;;;& &&&.&&;;;o;,;;;o;oo;;;;o;;;,;;",
"#;#;###;####;OOO;oo;o;;;  ;;;;,;&&& .&.&;o;;,;,;;;;o;;;;;;;;,;,;",
";#;####;,.####;O ;;o;;oo ;;;;;;,&.&...&.;o;;,;,;;;;;o;;;;;,;;,;;",
"#;#;##;;,#####OO; ;o;o;;;o;;;;;;.&...&.&;;;o;,;;;;;o;;;;;,;,,;;;",
";#;###;;#####;OO ;;;;;oo  ;;;;;;&.....&.;;;;,;;;;;;;;o;o;;;;;;;,",
"#;#;###;,.###OOO; o;;;;;;;;o;;;o.&.....&;o;;;,;;;;;;;o;;;o;;,<><",
",#,#,#,#,$##   ;###;#;##;#o#;;;;;&;o;;;o;;o;;;;; & &&&&.;;;;;;;;",
"#,#####,,,#,;;o;# ;#;;##;##;,;;;;& #o;;ooo;;;;;;&&&&&&&&;&;;;;;;",
"###,,#,#$$##o; ;###;#;###o#;;,;.;   ;o ;;;;;;;;;&&&&&&&&&&;;,;;;",
".,##,###,$#.; ;o##;#;###;#o;,;;;;&;o;;o; ;o;;;;;,&&&**** ;;;;,;,",
"##,#,###$$,$; ;;##;;#; #;##;;,;;;;o;o;;o;;o;;;;;&&&&**&&;;;,;;;;",
"##,##,##$$$$;   ##;#;####o ;,;;&;;  o;;o ;;;;;;;&&&&&&&&;;;;;;;;",
"####..$,$$,$o;O ###;#;##;##;;,;&oo #;o ;o;;;;;;;&&&&&&&&;;;;,;;;",
",###,.$$$$$,;;;;# ;#;;# ;# ;,,;;;;o ;;o; ;;;;;;;&&&.&&&. ;;;;;;;",
"###,#,##,#####OO;;;#;## ..&&&&**;&&;&&&*;;&;;<;;;;;o;oo;;;;;;;;o",
",#####,#.,,.##O;;##;#o##.&&&****&&&&&&&&&;;;;<,;oo;;;;;;;;o;;;;;",
"#,#,######,##O;O ;;#;o##..&&****&&&&&&&&;o;;;,;;;;o;o;;o;o;;;;;;",
"####,#,#,####;OO###;;;##.&&&****& &&&.&.;;&;;;;;;o;;o;;o;;;o;;;o",
"#####,##,###OO-O##;##; #..&&**,&.&.&.&.&;o;;;;;;;;o;o;;;;;;;;;;;",
",#,###,##;#,;-O;## ;;#;#.&&&*&&&&.&.&.&.;;;;;;;;o;o;;;o;;;oo;;;;",
"###,######;;O;OO ;#;;#;#.&&&**&;.&.&.&.&;;;;,;;;;o;;;o;o;o;;;;;o",
",###,#,##;#;OOO; o ;#;#;.&&&**&;&&&&&&&&;;;;;,;;;;;o;o;;;;o;;;;;",
"##########,,#,#.,.####OOoo;;;;#;o;;;;o;  ;;;;;;;o;o;;;;;o;;o;;,<",
"##,####,###,#####.###;OO ;;;;;; o;  ;o;;o;o;;;;;; ;  ;;;o;;o;;;;",
"#####,######### ,.###OOO ##;;;;#;  ;o;;o;;;;;;;;o; ;o;;;;;;;;;,;",
",#,###,####,## ######;OO#o#;;#;## ;oo;;;oo;;;;;;;;o;;;;;;o;;;,;;",
"###################,;OOO ;;;#;##  ;o;;;;;;;;;;;;;;;;;;;<;;;,;;;;",
"########>###########O-OO  o#;###;o ;o;o; ;o;;;;;,;;;;;;<o;;;,;;;",
"########>#>########O;OOO###;#; #o ; ;;;; ;;;;;;;;;;;;;;;;;;,;;;;",
"###,###,#>##>######;;OOO  #;;###;;;; ;  ;o;;;;;;;; o;;o;;;,;;;; ",
"########,#,##;; #####;OO;o;o;o ;o; ;;;o;; ;;;>;;;;;;;;;;;;;;;;;;",
"####,#,#,#####OO##,##;;O  ;;;;; ; ; o;o;o;;;,;;;;o o;,;;;;;;;;;;",
"#######,####;OOO,####OOO; o;o; ; ; ;;o;;;;;;;,;; ;;;;;;;;;;;;;;;",
"########,##,;;OO####;;;O ;;;o;; ; ; ;;;o;;;;,;;;; o;;,;;;;;;;;;;",
"..#######;#;OO;O.###O;OO; ;;;oo; ; ;oo;;;;;;;;;;;;;;;;;;;;;;;;;;",
"##########;O;OOO####;OOO ;o;;o; ; ; ;;;o;;o;,;;;;;o;;;; ;;;;;;;;",
"oooo####,#;;;-OO.#;  OOO ;;;;; ; ; ;;;;o;;;;;,;;;;;;;;;o;;;;;;;;",
"oooo###.,#;O;O-O#  ;O;OO; ;oo;; ; ;ooo;;; ;;;<;;;;oo;;;;;;;;;;;;"
};
