/* XPM */
static char *f953cbd3594c4da4e49d0223ea387a5fK9LapL4fFHtlG0Eh[] = {
/* columns rows colors chars-per-pixel */
"20 20 221 2 ",
"   c None",
".  c #221509",
"X  c #231708",
"o  c #231609",
"O  c #24170B",
"+  c #241808",
"@  c #241909",
"#  c #261A09",
"$  c #271A09",
"%  c #24180A",
"&  c #25190A",
"*  c #26190A",
"=  c #26180B",
"-  c #26190B",
";  c #261A0A",
":  c #271A0A",
">  c #271B0A",
",  c #271A0B",
"<  c #271B0B",
"1  c #281A09",
"2  c #281B09",
"3  c #281B0A",
"4  c #281B0B",
"5  c #291B0B",
"6  c #281C0B",
"7  c #291C0B",
"8  c #2E1E0B",
"9  c #291A0C",
"0  c #291B0C",
"q  c #2A1B0C",
"w  c #291C0C",
"e  c #291C0D",
"r  c #2A1C0C",
"t  c #2A1D0C",
"y  c #2B1D0C",
"u  c #2B1C0D",
"i  c #2A1D0D",
"p  c #2B1D0D",
"a  c #2B1E0D",
"s  c #2C1E0C",
"d  c #2C1E0D",
"f  c #2D1E0D",
"g  c #2D1F0D",
"h  c #2E1F0D",
"j  c #2C1D0F",
"k  c #2C1E0E",
"l  c #2D1E0E",
"z  c #2D1F0F",
"x  c #2E1E0E",
"c  c #2D200F",
"v  c #2E200E",
"b  c #2E200F",
"n  c #2E210F",
"m  c #2F210F",
"M  c #30200D",
"N  c #30200F",
"B  c #30210F",
"V  c #34230F",
"C  c #302110",
"Z  c #322312",
"A  c #382412",
"S  c #3F2810",
"D  c #3C2814",
"F  c #3D2B19",
"G  c #402A14",
"H  c #49301B",
"J  c #48321D",
"K  c #4E321E",
"L  c #51341E",
"P  c #4C3724",
"I  c #513823",
"U  c #503A27",
"Y  c #563A27",
"T  c #563F2A",
"R  c #6C3F30",
"E  c #6B432A",
"W  c #6D432A",
"Q  c #6E442B",
"!  c #70452B",
"~  c #72472D",
"^  c #72472E",
"/  c #74482F",
"(  c #7B4C2F",
")  c #614530",
"_  c #6F4032",
"`  c #6F4534",
"'  c #654B36",
"]  c #6A4931",
"[  c #6C4B35",
"{  c #764134",
"}  c #774336",
"|  c #704534",
" . c #7A4735",
".. c #7B4736",
"X. c #724B33",
"o. c #764A30",
"O. c #754C31",
"+. c #794D32",
"@. c #7A4E33",
"#. c #784834",
"$. c #7A4836",
"%. c #7A4936",
"&. c #7D4E34",
"*. c #7C4C37",
"=. c #7C473A",
"-. c #7E5132",
";. c #7D5035",
":. c #7E5136",
">. c #7F5137",
",. c #755540",
"<. c #74567D",
"1. c #76567E",
"2. c #825136",
"3. c #805237",
"4. c #865334",
"5. c #805039",
"6. c #805238",
"7. c #805338",
"8. c #815339",
"9. c #875339",
"0. c #81553A",
"q. c #82543A",
"w. c #83553B",
"e. c #85563A",
"r. c #85563B",
"t. c #8B5739",
"y. c #89573A",
"u. c #8C5739",
"i. c #84583C",
"p. c #8B5839",
"a. c #8B5939",
"s. c #88583A",
"d. c #8C593B",
"f. c #8E5A3B",
"g. c #8F5A3B",
"h. c #8B5A3F",
"j. c #8D593C",
"k. c #8F5A3C",
"l. c #8D5C3D",
"z. c #8F5C3D",
"x. c #905B3C",
"c. c #805141",
"v. c #825D45",
"b. c #8A5F46",
"n. c #83564A",
"m. c #8E5B48",
"M. c #925B42",
"N. c #925F43",
"B. c #86644B",
"V. c #8C664E",
"C. c #966242",
"Z. c #976243",
"A. c #986244",
"S. c #996345",
"D. c #9B6245",
"F. c #916348",
"G. c #966448",
"H. c #976548",
"J. c #996548",
"K. c #9B654E",
"L. c #9D694C",
"P. c #8F6850",
"I. c #987158",
"U. c #9F745E",
"Y. c #A26A47",
"T. c #A17055",
"R. c #A47056",
"E. c #A97055",
"W. c #A3715B",
"Q. c #AC765A",
"!. c #805C76",
"~. c #92636C",
"^. c #9D6E6F",
"/. c #A27761",
"(. c #AD7660",
"). c #AF7760",
"_. c #AC7766",
"`. c #A67A63",
"'. c #A87A63",
"]. c #AA7965",
"[. c #A97D64",
"{. c #A97C66",
"}. c #A77A6D",
"|. c #A97C68",
" X c #AB7E6A",
".X c #AC7F68",
"XX c #B57F69",
"oX c #A47576",
"OX c #AA7F75",
"+X c #AF8069",
"@X c #AB856E",
"#X c #B88265",
"$X c #B0816A",
"%X c #B58369",
"&X c #B4876B",
"*X c #B2846E",
"=X c #B5856D",
"-X c #B4866C",
";X c #B6856F",
":X c #B7886D",
">X c #BA896F",
",X c #B28470",
"<X c #B68872",
"1X c #BA8C70",
"2X c #BE8C73",
"3X c #BF8E75",
"4X c #B48E79",
"5X c #C2937B",
"6X c #C4947D",
"7X c #5B458A",
"8X c #7C6AA2",
"9X c #8B6E8D",
"0X c #BD9388",
"qX c #C19783",
"wX c #C8AA9B",
"eX c #C0A8AC",
"rX c #D0B2A3",
"tX c #D3BCAF",
"yX c #CEC8DE",
"uX c #ECDFD7",
"iX c #F5F3F6",
/* pixels */
"                                        ",
"                  ; ; X . .             ",
"  4 7 4 ; r y r < ; ; ; r q r y r       ",
"  4 ; ; r n r r q < q 4 q = < r r r r   ",
"  4 4 ; y y r n r r C < ; ; ; ; y y r   ",
"  4 ; ; y C C y c c r r r y M n y 4 7   ",
"  r ; ; r r C n r 6 < c V G G D M y 7   ",
"  q ; 4 r r n r F P T ' :.v.V.V.B.I n   ",
"  4 q r q ; q y B.&X1X3XqX3X3X>XQ.] J   ",
"  ; q y ; ; Z P I.:X-X<X,X`.=X%XL.J.H.  ",
"  ; 7 ; y Z U /.+X+X{.+X[.R.}.@X4X{.T.  ",
"  4 ; . H O.)  XrXeX<.^.#X5X7X8XiXwX'.  ",
"  4 ; X K y.[ -XuXyX7X~.)._.!.9XtX@XF.  ",
"  7 q j L p.i.R.qX0XoXn.| | W.#XY.a.-.  ",
"  A y Y q.g.x.D.E.Q._.c.R _ m.K.C.i.7.  ",
"  +.W X.J.u.2.F.D.M.=.} { { { ..l.i.2.  ",
"  4.x.x.D.y.&.h.g.9...%.%.%.*.>.r.>.*.  ",
"      x.C.p.O.^ ! / >.6.>.+.q.q.q.&.+.  ",
"            / ! W ^ 6.                  ",
"                                        "
};
