/* XPM */
static char *aea5036bbd3441b4994de22352d1bec2uRQGAy57Ibkt3m6E[] = {
/* columns rows colors chars-per-pixel */
"60 60 43 1 ",
"  c #663A2F",
". c #663A31",
"X c #653832",
"o c #134C00",
"O c #134D00",
"+ c #144D00",
"@ c #144C01",
"# c #870301",
"$ c #880200",
"% c #890300",
"& c #880201",
"* c #890302",
"= c #8A0202",
"- c #8B0303",
"; c #8A0403",
": c #890304",
"> c #8A0204",
", c #BC1F26",
"< c #BD2027",
"1 c #BC2127",
"2 c #BD2029",
"3 c #E72D2E",
"4 c #E72F2F",
"5 c #E82A2A",
"6 c #E82F2D",
"7 c #E82E2F",
"8 c #EA2E2F",
"9 c #E9302E",
"0 c #E72F31",
"q c #E92F30",
"w c #E82E31",
"e c #ED7366",
"r c #6BBE30",
"t c #6ABF30",
"y c #FDFDFD",
"u c #FEFEFC",
"i c #FFFFFD",
"p c #FDFFFE",
"a c #FEFEFE",
"s c #FEFEFF",
"d c #FFFEFF",
"f c #FEFFFF",
"g c white",
/* pixels */
"gggggggggggggggggygyyygygggggggggggggggggggggggggggggggggggg",
"gggggggggggggggggggggggggggggggggggggggggggggggggggggggggggg",
"gggggggggggggggggggggggggggggggggggggggggggggggggggggggggggg",
"gggggggggggggggggggggggggygggggggggggggggggggggggggggggggggg",
"gggggggggggggggggggggggggggggggggggggggggggggggggggggggggggg",
"gggggggggggggggggggggggggggggggggggggggggggggggggggggggggggg",
"ggggggggggggggggggggggyggggggggggggggggggggggggggggggggggggg",
"gggggggggggggggggggggggggggggggggggggggggggggggggggggggggggg",
"gggggggggggggggggggggggggggggggggggggggggggggggggggggggggggg",
"ggggggggggpggggggggggggggggggggggggggggggggggggggggggggggggg",
"gggggggggggggggggggggggggggggggggggggggggggggggggggggggggggg",
"gggggggggggggggggggggggggggggggggggggggggggggggggggggggggggg",
"ggggggpggggggggggggggggggggggggggggggggggggggggggggggggggggg",
"ggggggggggpggggggggggggggggggggggggggggggggggggggggggggggggg",
"gggggggggggggpyggggggggggggggggggggggggggggggggggggggggggggg",
"ggggggggggggggyggggggggggggggggggggggggggggggggggggggggggggg",
"gggggggggggggggggggggggggggggygggggggggggggggggggggggggggggg",
"gyggyygggggggggggggggggggggggggggggggggggggggggggggggggggggg",
"gggggggggggggggggggggggggggggggggggggggggggggggggggggggggggg",
"gggggggggggggggggggggggggggggggggggggggggggggggggggggggggggg",
"ggyggggggggggggggggggggggggggygggggggggggggggggggggggggggggg",
"ggyggggggggggggggggggggggggggg ggggggggggggggggggggggggggggy",
"gyggyggggggggggggggggggg+rrOgX ggggggggggggggggggggggggggggg",
"gggggygggggggggggggggggg+O+OgXgggggggggggggggggggggggggggggg",
"ggggggggggggggggggggggg=4r+r+ =7771=*gggggggggggggggggggyggg",
"gggggggggggggggggggggg=94rr++X=7777,=ggggggggggggggggggggggg",
"gggggggggggggggggggggg:w43=o+O*477771=gggggggggggggggggggggg",
"gggggggggggggggggggggg=75w4#=*7777777=gggggggggggggggggggggg",
"ggggggggggggggggpggggg*75777777777777=gggggggggggggggggggggg",
"gggggggggggggggggggggg=77e77947777774#pgggggggggggggggggyggy",
"gggggggggggggggggygggg=7777777677w77,=gggggggggggggggggggggg",
"gggggggggggggggggpgggg=77777777777711=ggggggggggggggggggyggg",
"ggggggggggggggggggggggg47474777778<<1ggggggggggggggggggggggg",
"ggggggggggggggggggggggg=777776767,<,=ygggggggggggggggggggggg",
"ggggggggggggggggyggggggg=7777771,1<=ggggggggggggggggyggggggg",
"gggggggggggggggggggggggy*=76771111==gggggggggggggggggggggggg",
"ggggggggggggggggggggygggygg====*=ggygggggggggggggggggggggggg",
"gggggggggggggggggggggggggggggggygggygggggggggggggggggggggggg",
"gggggggggggggggggggggggyggygggggygygggyggggggggggggggggggggg",
"gggggggggggggggggyggggggggggggggggggggyggggggggggygggggggggg",
"gggggggggggggggggggggggggggggggggggggggggggggggggggggggggggy",
"gggggggggggggggggggggggggggggggggggggggggggggggggggggggggggy",
"gggggggggggggggggggggggggggggggggggggggggggggggygggggggggggg",
"gggggggggggggggggggggggggggggggggggggggggggggggygggggggggggg",
"ggggggggggggggggggggggggggggggggggggggggggggyggggggggggggggg",
"ggggggggggggggggggggggggggggggggggggggggggggyggggggggggggggg",
"ggggggggggggggggggggggggggggggggggggggggggggyggggggggggggggg",
"gggggggggggggggggggggggggggggggggggggggggggggggygggggggggggg",
"gggpgggggggggggggggggggggggggggggggggggggggggggggggggggggggg",
"gggggggggggggggggggggggggygggggggggggggggggggggggggggggygggg",
"ggggyggggggggggggggggggggggggggggggggggggggggggggggggggggggg",
"gggggggggggggggggggggggggggggggggggggggggggggggggggggggygggg",
"gggggggggggggggggggggggggggggggggggggggggggggggggggggggggggg",
"ggggggggggggggggggggggggggggyggggggggggggggggggggggggggggggg",
"gggggggggpgggggggggggggggggggggggggggggggggggggggggggggggggg",
"gggggggggggggggggggggggggggggggggggggggggggggggggggggggggggg",
"ggggggggggggggggggggggggggggggggggggggggggggygggyggggggggggg",
"gggggggggggyggggggggggggggggggggggggggggggggyggggggggggggggg",
"gggggggggggggggggggggggggggggggggggggggggggggggggggggggggggg",
"ggggggggggggggyggggggggggggggygggggggggggygggggggggggggggggg"
};
