/* XPM */
static char *bf9d226fa0094f25e788ea768d6b7451bvDX0dRnYnVNmvpT[] = {
/* columns rows colors chars-per-pixel */
"80 80 2 1 ",
"  c #7C9EDE",
". c #90ADE3",
/* pixels */
"                                                                                ",
"                                                                                ",
"                                                                                ",
"                                                                                ",
"    ........                ........                            ............    ",
"    ........                ........                            ............    ",
"    ........                ........                            ............    ",
"    ........                ........                            ............    ",
"    ............                                                ............    ",
"    ............                                                ............    ",
"    ............                                                ............    ",
"    ............                                                ............    ",
"                                ....                                            ",
"                                ....                                            ",
"                                ....                                            ",
"                                ....                                            ",
"                                            ................                    ",
"                                            ................                    ",
"                                            ................                    ",
"                                            ................                    ",
"        ....................        ....    ............                        ",
"        ....................        ....    ............                        ",
"        ....................        ....    ............                        ",
"        ....................        ....    ............                        ",
"                                    ....                                        ",
"                                    ....                                        ",
"                                    ....                                        ",
"                                    ....                                        ",
"            ....                ........                        ........        ",
"            ....                ........                        ........        ",
"            ....                ........                        ........        ",
"            ....                ........                        ........        ",
"                        ................            ....        ........        ",
"                        ................            ....        ........        ",
"                        ................            ....        ........        ",
"                        ................            ....        ........        ",
"                                                                ........        ",
"                                                                ........        ",
"                                                                ........        ",
"                                                                ........        ",
"                        ....            ....                    ....            ",
"                        ....            ....                    ....            ",
"                        ....            ....                    ....            ",
"                        ....            ....                    ....            ",
"    ............                                                ........        ",
"    ............                                                ........        ",
"    ............                                                ........        ",
"    ............                                                ........        ",
"    ............                                                                ",
"    ............                                                                ",
"    ............                                                                ",
"    ............                                                                ",
"                                ............            ....                    ",
"                                ............            ....                    ",
"                                ............            ....                    ",
"                                ............            ....                    ",
"                ....            ....    ........                                ",
"                ....            ....    ........                                ",
"                ....            ....    ........                                ",
"                ....            ....    ........                                ",
"                                                                                ",
"                                                                                ",
"                                                                                ",
"                                                                                ",
"        ........                                                    ........    ",
"        ........                                                    ........    ",
"        ........                                                    ........    ",
"        ........                                                    ........    ",
"    ................            ....    ....                ................    ",
"    ................            ....    ....                ................    ",
"    ................            ....    ....                ................    ",
"    ................            ....    ....                ................    ",
"    ............                                            ............        ",
"    ............                                            ............        ",
"    ............                                            ............        ",
"    ............                                            ............        ",
"                                                                                ",
"                                                                                ",
"                                                                                ",
"                                                                                "
};
