/* XPM */
static char *edaa9af9c9b84a6be2be4b090697b4f3fW8X4XlUWP0pFR2b[] = {
/* columns rows colors chars-per-pixel */
"80 80 2 1 ",
"  c None",
". c #55A249",
/* pixels */
"................................................................................",
"................................................................................",
"................................................................................",
"................................................................................",
"................................................    ....................    ....",
"................................................    ....................    ....",
"................................................    ....................    ....",
"................................................    ....................    ....",
"........        ................................        ............    ........",
"........        ................................        ............    ........",
"........        ................................        ............    ........",
"........        ................................        ............    ........",
"........        ....................................................    ........",
"........        ....................................................    ........",
"........        ....................................................    ........",
"........        ....................................................    ........",
"................................................................................",
"................................................................................",
"................................................................................",
"................................................................................",
"....................................    ........................................",
"....................................    ........................................",
"....................................    ........................................",
"....................................    ........................................",
"................    ............................................        ........",
"................    ............................................        ........",
"................    ............................................        ........",
"................    ............................................        ........",
"................    ............................    ............        ........",
"................    ............................    ............        ........",
"................    ............................    ............        ........",
"................    ............................    ............        ........",
"................................................................        ........",
"................................................................        ........",
"................................................................        ........",
"................................................................        ........",
"................................................................................",
"................................................................................",
"................................................................................",
"................................................................................",
"................................    ............    ............................",
"................................    ............    ............................",
"................................    ............    ............................",
"................................    ............    ............................",
"................    ............................................................",
"................    ............................................................",
"................    ............................................................",
"................    ............................................................",
"................................................................        ........",
"................................................................        ........",
"................................................................        ........",
"................................................................        ........",
"........    ....................................................        ........",
"........    ....................................................        ........",
"........    ....................................................        ........",
"........    ....................................................        ........",
"........................    ....................................................",
"........................    ....................................................",
"........................    ....................................................",
"........................    ....................................................",
"....................        ....................................................",
"....................        ....................................................",
"....................        ....................................................",
"....................        ....................................................",
"................................    ............        ........................",
"................................    ............        ........................",
"................................    ............        ........................",
"................................    ............        ........................",
"................................................        ............    ........",
"................................................        ............    ........",
"................................................        ............    ........",
"................................................        ............    ........",
"............    ................................................................",
"............    ................................................................",
"............    ................................................................",
"............    ................................................................",
"................................................................................",
"................................................................................",
"................................................................................",
"................................................................................"
};
