/* XPM */
static char *d29376fcebd84f60d7e328aa3a858409BRG4WtLQvcOmQnHs[] = {
/* columns rows colors chars-per-pixel */
"64 64 58 1 ",
"  c None",
". c #241808",
"X c #261A09",
"o c #261A0A",
"O c #281C0B",
"+ c #2A1D0D",
"@ c #2B1E0D",
"# c #2C1E0E",
"$ c #2F1F0F",
"% c #2D1C11",
"& c #2F200D",
"* c #332411",
"= c #342512",
"- c #392611",
"; c #3F2A15",
": c #422A12",
"> c #6D432A",
", c #6F452C",
"< c #6A4030",
"1 c #734133",
"2 c #774235",
"3 c #7A4E33",
"4 c #7E5036",
"5 c #805334",
"6 c #805337",
"7 c #815339",
"8 c #83553B",
"9 c #8F5E3E",
"0 c #875241",
"q c #855043",
"w c #905E43",
"e c #925F43",
"r c #965F40",
"t c #936040",
"y c #9C6346",
"u c #9C6547",
"i c #9C694C",
"p c #9C725C",
"a c #A26A47",
"s c #AC765A",
"d c #A67A66",
"f c #AA7D66",
"g c #B37B62",
"h c #B57B67",
"j c #AD806D",
"k c #B7806B",
"l c #B4846D",
"z c #B6896C",
"x c #BE886C",
"c c #B78272",
"v c #BB8972",
"b c #BD8B72",
"n c #BD8E72",
"m c #BD8E74",
"M c #C2917A",
"N c #523D89",
"B c #C69680",
"V c white",
/* pixels */
"                                                                ",
"                                                                ",
"                                                                ",
"                                                                ",
"                                                                ",
"                                                                ",
"                                                                ",
"                                                                ",
"                                                                ",
"                                                                ",
"        &&&&&&@@@@@$$$$$OOOO@.......oooo@@@@OO@O@@&%%%%%        ",
"        &&&&&&@@@@@$$$$$OOOOOO.....Ooooo@@@@&%O%@@%%%%%%        ",
"        &&&&&&@@@@@$$$$$OOOOO......ooooo@@@@@@@O@@O%%%%%        ",
"        &&&&&&@@@@@$$$$$OOOO@......ooooo@@@@@@@Oo%@%%%%%        ",
"        &&&&&&@@@@@$$$&$OOOOO......ooooo@@@@@O@@@@@%%%%%        ",
"        @@@@@@@@@@@@@@@@*****-:::::;;;;;%&@@%OOOoOo%%%%%        ",
"        @@@@@@@@@@@@@@@@*****-:::::;;;;;#####OOOOOO%%%%%        ",
"        @@@@@@@@@@@@@@@@*****-:::::;;;;;#####OOOOOO%%%%%        ",
"        @@@@@@@@@@@@@@@@*****-:::::;;;;;#####OOOOOO%%%%%        ",
"        @@@@@@@@@@@@@@@@*****-:::::;;;;;#####OOOOOO%%%%%        ",
"        @@@@@@zzzzznnnnnBBBBBMbbbbbmmmmmsssss======%%%%%        ",
"        @@@@@@zzzzznnnnnBBBBBMbbbbbmmmmmsssss======%%%%%        ",
"        @@@@@@zzzzznnnnnBBBBBMbbbbbmmmmmsssss======%%%%%        ",
"        @@@@@@zzzzznnnnnBBBBBMbbbbbmmmmmsssss======%%%%%        ",
"        @@@@@@zzzzznnnnnBBBBBMbbbbbmmmmmsssss======%%%%%        ",
"        @@@@@@zzzzznnnnnBBBBBMbbbbbmmmmmsssss======%%%%%        ",
"        fffffflllllfffffjjjjjdpppppvvvvviiiiiiiiiii%%%%%        ",
"        fffffflllllfffffjjjjjdpppppvvvvviiiiiiiiiii%%%%%        ",
"        fffffflllllfffffjjjjjdpppppvvvvviiiiiiiiiii%%%%%        ",
"        fffffflllllfffffjjjjjdpppppvvvvviiiiiiiiiii%%%%%        ",
"        fffffflllllfffffjjjjjdpppppvvvvviiiiiiiiiii%%%%%        ",
"        llllllVVVVVNNNNNhhhhhkvvvvvNNNNNVVVVVffffff%%%%%        ",
"        llllllVVVVVNNNNNhhhhhhvvvvvNNNNNVVVVVffffff#%%%%        ",
"        llllllVVVVVNNNNNhhhhhhvvvvvNNNNNVVVVVffffff%%%%%        ",
"        llllllVVVVVNNNNNhhhhhcvvvvvNNNNNVVVVVffffff%%%%%        ",
"        llllllVVVVVNNNNNhhhhhkvvvvvNNNNNVVVVVffffff%%%%%        ",
"        yyyyyygggggccccc<<<<<<<<<<<xxxxxaaaaa555655#%%%%        ",
"        yyyyyygggggccccc<<<<<<<<<<<xxxxxaaaaa555556%%%%%        ",
"        yyyyyygggggccccc<<<<<<<<<<<xxxxxaaaaa555555%%%%%        ",
"        yyyyyygggggccccc<<<<<<<<<<<xxxxxaaaaa555555#%%%%        ",
"        yyyuuugggggccccc<<<<<<<<<<<xxxxxaaaaa655556%%%%%        ",
"        wwwteeuuuuu0qqqq2211111111100000ttttt666666%%%%%        ",
"        wwwwwwrrrrr22222222222222222222299999777677%%%%%        ",
"        wwwwwwrrrrr22222222222222222222299999777777%%%%%        ",
"        wwwwwwrrrrr22222222222222222222299999777777%%%%%        ",
"        wwwwwwrrrrr22222222222222222222299999777777%%%%%        ",
"        wwwwwwrrrrr22222222222222222222299999777777%%%%%        ",
"        ,,,,,,>>>>>77777777773333338888888888333333%%%%%        ",
"        ,,,,,,>>>>>77777777776333338888888888333333%%%%%        ",
"        ,,,,,,>>>>>77777777776333338888888888333333%%%%%        ",
"        ,,,,,,>>>>>77777777773333338888888888333333%%%%%        ",
"        ,,,,,,>>>>>77777777776333338888888888333333%%%%%        ",
"        %%%%%%%%%%%%%%%%%%%%%%%%%%%%%%%%%%%%%%%%%%%%%%%%        ",
"        %%%%%%%%%%%%%%%%%%%%%%%%%%%%%%%%%%%%%%%%%%%%%%%%        ",
"        %%%%%%%%%%%%%%%%%%%%%%%%%%%%%%%%%%%%%%%%%%%%%%%%        ",
"        %%%%%%%%%%%%%%%%%%%%%%%%%%%%%%%%%%%%%%%%%%%%%%%%        ",
"        %%%%%%%%%%%%%%%%%%%%%%%%%%%%%%%%%%%%%%%%%%%%%%%%        ",
"                                                                ",
"                                                                ",
"                                                                ",
"                                                                ",
"                                                                ",
"                                                                ",
"                                                                "
};
