/* XPM */
static char *_798703ee8a7446eb319891909cc2c81GbIae60FQ5LUkA6U[] = {
/* columns rows colors chars-per-pixel */
"80 80 2 1 ",
"  c #FDFD5C",
". c #FEFE8E",
/* pixels */
"................................................................................",
"................................................................................",
"................................................................................",
"................................................................................",
"....    ........................................................            ....",
"....    ........................................................            ....",
"....    ........................................................            ....",
"....    ........................................................            ....",
"....                ........................................                ....",
"....                ........................................                ....",
"....                ........................................                ....",
"....                ........................................                ....",
"................................    ....        ............                ....",
"................................    ....        ............                ....",
"................................    ....        ............                ....",
"................................    ....        ............                ....",
"........    ........................    ....................................    ",
"........    ........................    ....................................    ",
"........    ........................    ....................................    ",
"........    ........................    ....................................    ",
"........                ............    ........................................",
"........                ............    ........................................",
"........                ............    ........................................",
"........                ............    ........................................",
"........                ........................................    ............",
"........                ........................................    ............",
"........                ........................................    ............",
"........                ........................................    ............",
"........        ............        ........    ................................",
"........        ............        ........    ................................",
"........        ............        ........    ................................",
"........        ............        ........    ................................",
"........................    ....................................................",
"........................    ....................................................",
"........................    ....................................................",
"........................    ....................................................",
"........................    ................            ....    ................",
"........................    ................            ....    ................",
"........................    ................            ....    ................",
"........................    ................            ....    ................",
"....................................        ........................        ....",
"....................................        ........................        ....",
"....................................        ........................        ....",
"....................................        ........................        ....",
"........................................    ....................................",
"........................................    ....................................",
"........................................    ....................................",
"........................................    ....................................",
"....................        ........    ........................        ........",
"....................        ........    ........................        ........",
"....................        ........    ........................        ........",
"....................        ........    ........................        ........",
"....................                ....................    ....................",
"....................                ....................    ....................",
"....................                ....................    ....................",
"....................                ....................    ....................",
"................................................................................",
"................................................................................",
"................................................................................",
"................................................................................",
"........    ....................................................................",
"........    ....................................................................",
"........    ....................................................................",
"........    ....................................................................",
"........                ............................................        ....",
"........                ............................................        ....",
"........                ............................................        ....",
"........                ............................................        ....",
"................    ....................    ........    ........            ....",
"................    ....................    ........    ........            ....",
"................    ....................    ........    ........            ....",
"................    ....................    ........    ........            ....",
"................        ....................................                ....",
"................        ....................................                ....",
"................        ....................................                ....",
"................        ....................................                ....",
"................................................................................",
"................................................................................",
"................................................................................",
"................................................................................"
};
