/* XPM */
static char *_3a60bf8d15f4a7ebaca7a253a89b41fPCE00BGEc3XwbJSp[] = {
/* columns rows colors chars-per-pixel */
"80 80 2 1 ",
"  c gray42",
". c gray47",
/* pixels */
"................................................................................",
"................................................................................",
"................................................................................",
"................................................................................",
"....            ....................................................        ....",
"....            ....................................................        ....",
"....            ....................................................        ....",
"....            ....................................................        ....",
"....            ........................        ................            ....",
"....            ........................        ................            ....",
"....            ........................        ................            ....",
"....            ........................        ................            ....",
"....................................        ............................    ....",
"....................................        ............................    ....",
"....................................        ............................    ....",
"....................................        ............................    ....",
"....................................            ................................",
"....................................            ................................",
"....................................            ................................",
"....................................            ................................",
"............            ................................        ................",
"............            ................................        ................",
"............            ................................        ................",
"............            ................................        ................",
"............            ........................................................",
"............            ........................................................",
"............            ........................................................",
"............            ........................................................",
"................................................................................",
"................................................................................",
"................................................................................",
"................................................................................",
"........................................        ............        ............",
"........................................        ............        ............",
"........................................        ............        ............",
"........................................        ............        ............",
"................................                ................................",
"................................                ................................",
"................................                ................................",
"................................                ................................",
"............        ............    ............................................",
"............        ............    ............................................",
"............        ............    ............................................",
"............        ............    ............................................",
"........            ............................................................",
"........            ............................................................",
"........            ............................................................",
"........            ............................................................",
"................................................................................",
"................................................................................",
"................................................................................",
"................................................................................",
"........    ................................................        ............",
"........    ................................................        ............",
"........    ................................................        ............",
"........    ................................................        ............",
"....        ........................        ............            ............",
"....        ........................        ............            ............",
"....        ........................        ............            ............",
"....        ........................        ............            ............",
"....    ............................        ....................................",
"....    ............................        ....................................",
"....    ............................        ....................................",
"....    ............................        ....................................",
"....................................        ....................................",
"....................................        ....................................",
"....................................        ....................................",
"....................................        ....................................",
"....        ........................................................        ....",
"....        ........................................................        ....",
"....        ........................................................        ....",
"....        ........................................................        ....",
"....        ................................................                ....",
"....        ................................................                ....",
"....        ................................................                ....",
"....        ................................................                ....",
"................................................................................",
"................................................................................",
"................................................................................",
"................................................................................"
};
