/* XPM */
static char *_fa1d9df0a5444fabc2b3c57892b07da3K5aL44at7bm7q2O[] = {
/* columns rows colors chars-per-pixel */
"80 80 2 1 ",
"  c gray42",
". c gray47",
/* pixels */
"................................................................................",
"................................................................................",
"................................................................................",
"................................................................................",
"....            ....................................................        ....",
"....            ....................................................        ....",
"....            ....................................................        ....",
"....            ....................................................        ....",
"....            ........................        ................            ....",
"....            ........................        ................            ....",
"....            ........................        ................            ....",
"....            ........................        ................            ....",
"....................................        ............................    ....",
"....................................        ............................    ....",
"....................................        ............................    ....",
"....................................        ............................    ....",
"....................................            ................................",
"....................................            ................................",
"....................................            ................................",
"....................................            ................................",
"............            ................................        ................",
"............            ................................        ................",
"............            ................................        ................",
"............            ................................        ................",
"............            ........................................................",
"............            ........................................................",
"............            ........................................................",
"............            ........................................................",
"................................................................................",
"................................................................................",
"................................................................................",
"................................................................................",
"........................................        ............        ............",
"........................................        ............        ............",
"........................................        ............        ............",
"........................................        ............        ............",
"................................                ................................",
"................................                ................................",
"................................                ................................",
"................................                ................................",
"............        ............    ............................................",
"............        ............    ............................................",
"............        ............    ............................................",
"............        ............    ............................................",
"........            ............................................................",
"........            ............................................................",
"........            ............................................................",
"........            ............................................................",
"................................................................................",
"................................................................................",
"................................................................................",
"................................................................................",
"........    ................................................        ............",
"........    ................................................        ............",
"........    ................................................        ............",
"........    ................................................        ............",
"....        ........................        ............            ............",
"....        ........................        ............            ............",
"....        ........................        ............            ............",
"....        ........................        ............            ............",
"....    ............................        ....................................",
"....    ............................        ....................................",
"....    ............................        ....................................",
"....    ............................        ....................................",
"....................................        ....................................",
"....................................        ....................................",
"....................................        ....................................",
"....................................        ....................................",
"....        ........................................................        ....",
"....        ........................................................        ....",
"....        ........................................................        ....",
"....        ........................................................        ....",
"....        ................................................                ....",
"....        ................................................                ....",
"....        ................................................                ....",
"....        ................................................                ....",
"................................................................................",
"................................................................................",
"................................................................................",
"................................................................................"
};
