/* XPM */
static char *_62c4afc5a014c03a50a4b4e8e597557TPySqAnjY5pKcRm5[] = {
/* columns rows colors chars-per-pixel */
"64 64 242 2 ",
"   c #07181E",
".  c #0F1B24",
"X  c #0A2828",
"o  c #14292C",
"O  c #19272C",
"+  c #1C2D32",
"@  c #1A2D35",
"#  c #1C3235",
"$  c #193737",
"%  c #123330",
"&  c #222D33",
"*  c #292C38",
"=  c #243235",
"-  c #25343A",
";  c #2B363B",
":  c #243B3B",
">  c #2C3A3E",
",  c #273437",
"<  c #33373D",
"1  c #27282F",
"2  c #1E443E",
"3  c #2B3D42",
"4  c #263B43",
"5  c #313D44",
"6  c #3C3D49",
"7  c #1C3B40",
"8  c #2C4244",
"9  c #2A4449",
"0  c #344245",
"q  c #34454A",
"w  c #38484B",
"e  c #3B4A53",
"r  c #3B5556",
"t  c #2E4B51",
"y  c #345D5A",
"u  c #434D54",
"i  c #4C555B",
"p  c #46585B",
"a  c #4F5358",
"s  c #4B5C62",
"d  c #535D64",
"f  c #585D67",
"g  c #655B69",
"h  c #4C6567",
"j  c #566369",
"k  c #59666C",
"l  c #49796E",
"z  c #5A6E71",
"x  c #4C7C74",
"c  c #547D76",
"v  c #5C7D7C",
"b  c #557B78",
"n  c #64666E",
"m  c #676B75",
"M  c #637B7C",
"N  c #68767A",
"B  c #75757C",
"V  c #796B78",
"C  c #81757F",
"Z  c #4D877B",
"A  c #55847D",
"S  c #5C847D",
"D  c #57877A",
"F  c #62837D",
"G  c #6B7E82",
"H  c #697B82",
"J  c #737D83",
"K  c #7B7B84",
"L  c #767A85",
"P  c #5D7F80",
"I  c #847986",
"U  c #5C8582",
"Y  c #5B8A83",
"T  c #578B85",
"R  c #5A9286",
"E  c #4F8D82",
"W  c #648482",
"Q  c #6B8484",
"!  c #648B85",
"~  c #6B8A86",
"^  c #6D8589",
"/  c #658D8A",
"(  c #6C8C8B",
")  c #668789",
"_  c #748485",
"`  c #75848A",
"'  c #7B848B",
"]  c #738C8C",
"[  c #7B8B8D",
"{  c #768686",
"}  c #64948C",
"|  c #6B928D",
" . c #66988D",
".. c #72928E",
"X. c #7B928F",
"o. c #7C8D92",
"O. c #768991",
"+. c #6C9591",
"@. c #6C9B93",
"#. c #699C96",
"$. c #749492",
"%. c #7C9394",
"&. c #729A94",
"*. c #7B9A96",
"=. c #749C9A",
"-. c #7C9B9A",
";. c #7C9599",
":. c #6F8E90",
">. c #74A29C",
",. c #7CA39D",
"<. c #73A294",
"1. c #6BA297",
"2. c #7DA5A2",
"3. c #7AABA4",
"4. c #7F9EA0",
"5. c #84848B",
"6. c #82898E",
"7. c #838C93",
"8. c #8B8B95",
"9. c #8B8A97",
"0. c #938D98",
"q. c #839395",
"w. c #8A9396",
"e. c #85949A",
"r. c #8B949C",
"t. c #839B9B",
"y. c #8B9B9C",
"u. c #829C96",
"i. c #959B9D",
"p. c #95949B",
"a. c #84A29E",
"s. c #8AA19E",
"d. c #839DA1",
"f. c #8C9DA2",
"g. c #8F90A2",
"h. c #939DA3",
"j. c #9C9DA5",
"k. c #9A98A5",
"l. c #A59BAB",
"z. c #84A4A2",
"x. c #8CA3A4",
"c. c #8AAAA5",
"v. c #8DA4A9",
"b. c #8DABAA",
"n. c #84ABA7",
"m. c #93A3A5",
"M. c #9BA4A6",
"N. c #94A4AA",
"B. c #9BA4AC",
"V. c #94ABAC",
"C. c #9BABAD",
"Z. c #96A9A6",
"A. c #8BB3AC",
"S. c #83B4AD",
"D. c #94B2AD",
"F. c #9BB1AD",
"G. c #95ADB1",
"H. c #9CADB2",
"J. c #9BA5B1",
"K. c #8DB5B2",
"L. c #8DBBB4",
"P. c #94B4B2",
"I. c #9BB3B4",
"U. c #94BAB5",
"Y. c #9CB9B5",
"T. c #9DB5B9",
"R. c #94BCBA",
"E. c #9CBCBA",
"W. c #96B5B8",
"Q. c #A2A4AC",
"!. c #A2ABAE",
"~. c #AAA7AE",
"^. c #A9A6B2",
"/. c #A4ACB3",
"(. c #AAACB4",
"). c #ACAEBA",
"_. c #A6AAB6",
"`. c #B4ACB8",
"'. c #A3B3B5",
"]. c #AAB3B6",
"[. c #A4B5BA",
"{. c #ABB4BB",
"}. c #A4BBBC",
"|. c #ABBABD",
" X c #A3B9B7",
".X c #B2B4BC",
"XX c #B3BBBE",
"oX c #B4B9BB",
"OX c #A9ABAF",
"+X c #A08E9E",
"@X c #9CC2BD",
"#X c #95C2BA",
"$X c #8EC4B8",
"%X c #A3C2BD",
"&X c #A5C5BD",
"*X c #9DBFC0",
"=X c #A5BDC1",
"-X c #ACBDC2",
";X c #A9B6C1",
":X c #B3BCC3",
">X c #BABBC4",
",X c #B8B9C5",
"<X c #C3BBC7",
"1X c #9BC7C1",
"2X c #A4C3C3",
"3X c #ACC3C4",
"4X c #AEC6C9",
"5X c #ACCBCB",
"6X c #A7C9C6",
"7X c #B3C3C5",
"8X c #BAC1C6",
"9X c #B3C5CA",
"0X c #BBC4CB",
"qX c #B4CBCC",
"wX c #BBCBCD",
"eX c #B1CAC7",
"rX c #B4D1CE",
"tX c #BCD0CF",
"yX c #BCCDD2",
"uX c #B5CCD1",
"iX c #ACD4D2",
"pX c #BBD3D4",
"aX c #BCDADA",
"sX c #B6D5D6",
"dX c #AFD2CE",
"fX c #BEE0E1",
"gX c #C2C5CC",
"hX c #C1CACE",
"jX c #C7C2CB",
"kX c #C3CCD3",
"lX c #C9CAD4",
"zX c #CAC8D6",
"xX c #C3D2D5",
"cX c #C3D5DA",
"vX c #C8D7DB",
"bX c #D1D4DD",
"nX c #D0CEDB",
"mX c #CADBE2",
"MX c #D4DBE5",
"NX c #E0D5E7",
"BX c #C8E1E3",
"VX c #D6E2E9",
/* pixels */
"}.k 3 4 ^ aX0Xk.O.H.lXoXwXw.i.lXnX,XP 4 e H nX<X;XP 4.,X>Xy.H ( C.xXy.0 > w F.wX|.s.w.wXeX|.|.Z.qX6XyXH 7 t r L cX;X;Xv.,XJ.;Xh.",
"f.4 ; * z H.L wXqXeX{.7.wXxXvX'.g.J.4 4 6 s ;XL ;XiX4X;Xq.{.I.=X` [.j & > , m.w.Z.xXwXeXq. XeXtXcXf._.H 6 4 @ g.J.4.uX;XuXg.I.5X",
",X* * * N yX/.8Xc.D.}.3X@X,.L.Y.,XuXe 4 4 P ,X;X*X*Xn.*X=X=Xn.b.' :X5.; = , ].7XF.Z.q.I.&XtXa.u.g.,XNXl.e 4 6 ;XMX*X4.#.I.eX@X} ",
"k.9.V g |.:X).` $.-.D.sX<.<. .a.,X_.;XP H _.;X;XO.P :.2.6X/ U P m./.(.j n i./.|.y.[ *.-.qX%X..{ 7.,Xl.j.;X*X,Xk.g.J.P T z 5XK.l ",
"r.;XM.wXT.` 8X' ..&.I.aX<. .! F.:XL MX,XnXpXO.W.;.:.U L.iXR T v ].5.~.oXXXlX[ !.F.] *.-.5XR.| ..L 0XJ.;XnXf.mX*XT.;Xo.4./ 5Xb.W ",
"V.9XM N.E.5XqX}.,.*.3X7XD.~ u.qXsXJ.kXg.d.2X=XsX*X4.H R.3.>.Y ] |.oXOXw._ ].'.wXxXx.]  X&X6Xt.-.;X9X*Xv.,Xh.;Xn.2X-X-XN.z.s.x.y.",
"b z.3XY.U $.V.wX X5X!.6.eX XxXC.>.R 4.fXaX=.+.n.;X,X;XT.+.3XN.{.x.F ~ &X&X..{ u.|.wX8X0X' (.>X{.cXz.#.R T.MXG.:.:.d.>Xl.rXV..X>X",
"/ +.2X$.| W e.|.M 3X.XoX0XB !.C.P 3.:.uXK.#.&./ ;XH J.-XW.yXB h...S | ,.Y.X.X.F '.6.6.>X(..X`.L {.( } =.f.yX;.=.:.;.j.6.V.M 8.`.",
"F u.&XZ.F F p.&X&X_ a g w. X8Xq.U } ;.aXT./ } ( B..XC.u 9 H ^.).X.S ..A.%Xu.F [ Z.eX&Xf 3 u l.>X[.t.( ..7XpXZ...;.4.yXyXh @ & m ",
"s. X!.eXF. XM.i.F.w < 1 0 OXM.oXF.A.7X-XE.T.R.I.-X:Xk - : @ r.' Z.a.c.F. X&Xi.&Xs.i.{ 1 q * f -Xe.2X X2X Xc.2X%X=X5X%.t.: 3 @ o ",
"F. X{  X&X&XOX6.F.w < < < (.5.i.wXD.wXc.m.%X%X4X' B.j + # o k.L s. X&Xs.u.&X&XhXy.m.[ = 5 7 s T.d.E.U.@XP.c.%XA.b.T.f.-Xu . O m ",
"D c.&XF.s.F M.].|.N 1 < n gXjX`.u.! c.&X2Xz.~ [ -X:Xh.< > k ;X;Xa.F F F.hXF.F u.y.3X3Xm & 6 k.yX4X( ! ! n.sXa.D W ^ -XN.J.m H k.",
"D F &Xa.F F [ OX` &Xl.p.~.5.~.0.S Z Z $XL.c z F W.J B.(.`.l.g 9.F D D F A.F F F I.r.' `.Q.,X,XV }.S } c ..&X&.F ) o.9Xz _.f.,X_.",
"D ~ #Xu.D ..q.&Xs.|.OXi.hXM..Xm.D R Z $X$X! F ] 2XT.[.p.g.,X^._.a.Z D A.&X<.X.F m.|.Q.0Xj.+X`.;XqXz.W v A.&XD.D S z.4Xv.uXg.J.9.",
"i.Z.w.i.m.F.8X|.c.a. XF.Y.n.D.3XZ.y.a.a.c.s.q.}.K.=.=.6X*XO.T #.Z.i.i.i.F Z.Z.Z.tXI.;.z.4X5Xb.d.m.<X~.j.Y.| %Xa.Y.@X} T 4.4X*XP ",
"C ].i.Z.oXF hXs...F }.aX3.@.@.2X8Xw.qXa.C.:Xq.wX+.R T L.6X/ T P &X8.i.oX6.hXq.Z.eXQ &.&.iX*X=.>.y.oXl.k.eX*.eXt.Z.U.#.R ) uX#.E ",
"i.~.m m .Xl.8X] :.( [.3X3.>.+.f.,Xk.;Xe.r.>XQ.;X) / #.*X*XT E P J.^.`.0.d L '.|.(.Q | <.&XrX&.=.o.;XzX<XO.P H 9XuX;XP #.4.-X*XR ",
"`.a O X n MX'.G.4.V.yXuXiX=.K.uXnXzXk - & L zX0X*X=.n.=X5Xv./ *Xf.`.9.6 & 3 f.0X/.C.z.#X|.8X&XD.4X,XzXg.4 4 6 L uXv.*X*X-X4.P.1X",
"!.O w 8 e |.N yX7XyX[.o.uXuXmX{.K ;X4 r 5 d ,XL 4XuXsXg.g.yX;X*XH G.O.+ 3 o Q x.p.hX6XsXQ.i.xX&XfX4.J.L 7 t 4 O.;Xv.fX*X0X!.&XZ.",
"&Xi = o N cXyXT.t.I.-X-X2Xz.H.'.nX9X9 3 5 f kX0XW.=.v.:XyXf.G 4.f.9Xf.5 - 0 x.vX].!.| s.8XjX|...G.W.mX;Xp 7 t J.MXJ.O.H w.XX'.( ",
"9..X[ e.,X0.|.M $.O.B.yXS.=.W d.9X_.;XH O.;X;XG.=.+.T 3.2XP T x v.j._.Q.J C.V.N.j.[ &.| wX XX.&.G ;XQ.J.=XN.-X;X;.G.:.=.^ }.D.S ",
"0.0XO.3XlX5.-XG.( -.7XyXY / ^ I.0XJ mX=XyXxXo.;X:./ P *XsXU U b -Xr.N.,Xp.cXH.t.:X[ =.$.tXeXF X.O.zX)./.aXG.yX;XT.4X:.P %.eX6X) ",
"f.[.t.x.N.|.9X[.v.y.|.9X[.O.y.7XuX_.pXd.f.9X:XyX;Xv.e.H.J.h.7.J.3XV.v.C.u.C.c.7XlX!.x.Z.oXoXi.u.V.eXH.G.-Xn.[.G.;X;X5XH.;Xo.f.J.",
"v $.4XW.W ( v.qX-X-X/.[ gX^.lX-Xe.:.4.mXpXO.o.g.:X-X,XJ.9.zXr.'.%.( ! ;.0Xx.F ^  XgXT.qXw.j.gX!.5XP.( ~ W.aXE.^ O.d.-Xg.,X).;X0X",
"/ v 2Xs.F &.Q 3XN C.qX!.gXK OXy./  .} iXR.+.=.~ W.H t.[.t.[.7.e...F } ..&Xq.F ..q.].N &XOXoXoXN &X! $.~ &.aXs...;.H J.f._.d f J.",
"! c.qXE.( W y.7X0Xq.q i 8.(.hXy.+.U 2.iX1X( / ;.E.pXe.8 X p H.'.q.F F D.&X!...F i.xX&Xm < u 6.wX|.a.( ..%XqXD.| ( T.9X9Xw @ @ u ",
"I.'.q.I.7X|.-XQ  Xp : 8 8  Xs.C.T.N.yX).[.I.I.2Xg.{.j # 8 + _ q.m.|.Y.Y.6.oX&X&Xi.q.s.% > : p |.7.|. X&X7Xy. X&XdXT.^ T.4 t 4 & ",
"t.F.x.}.}.V.|.u.Z.e > + = C.w.F.4X=X9Xf.m.3X2X3Xt.].d O + + 7.Q.C.Z.a.U.m.OXY.%Xm.y.F.0 > = w %Xw. XY. X|.c.Y.@XA.b.'.9Xy   @ f ",
"Y &.&XF. .! u.XXhXy.2 , C `.nXZ.} R ,.6X1Xn.T ! V.wXC.i w y.(.j.u.D D <.&Xi...~ s.hXoXm * w 8.lXtX*.D Y c.cXc.c S ..|.p.;XO.9.;X",
"D Z I.c.R  .F OXn !.F.w.<XI ~.q.R E A #XS.D l +.|.L w.7XV.Z.m i.F D D D &Xi.~ D X.M.B oX].oX.Xm T.| } A F %X<.D c %.!.L :XJ.g.,X",
"A ( |.Z.! ~ %.|.&X].&X7.<X~.OX Xc Y ..[.R.} c ) |.{.{.F.] }.M.^.OXF D <.&Xi.F ~ m.|.!.wXm.[ -X|.:Xv.b F Z.eXD.D F D.|.Z.W.G.k.j.",
"Z.m.X.7.t.F.7X X6.s.&X XoXy.Z.&XI.z.y.f. Xt.z. XH.y.' 3X2XP._ ` Z.F.s.F.5.i.s.Y.7X'.u.a.3XY.}.O.v.yXH.N.F.{ D.c.D.%Xt.:.( =XuXL ",
"K ,XN.B._.L yX-.;.Q =XsX>.1.=.G.{.g.kXq._.;Xe.cX4./ P n.iX=.P P u.6.N jXi.OXs.w.8Xe. .R R.tX2.@.=.=X_.0.uXN.9Xv.e.-X) +.S c.}.M ",
"l.k.m z Q.>X9XW +.+.T.uXS.=./ G.<Xl.:Xe.J._.g.:X+./ T =.*X=.E E F s.l.~.a B oX!.8X` R #.6XxX,.@.} G.<X,Xj.k H ,X>X:X,.A ,.sXeXu.",
":Xq X X z cXV.R.z.2XyX-X=XW.I.0XmX,Xh % s J.VX:Xd.:.4.5XuXG.) =.D.eXY.w * , M xX'.m.,.L.eX7X'.D.*XuXNXl.5 t 4 N nXf.5XA.E.c.X.7X",
"B.3 r $ p _.^ sX6X3X[.y.aX5XcX/.g.G.9 7 t s ,Xo.sXiXT.G.O.uX*X2X<.S u.X u , z  X6.xXrXrX'.r.0XtXfXf.^.I - e 5 d :Xe.5X#X5X}.V.&X",
":Xj + + o.MXqXb.=.f.3X5XR.$.v.[.9X:Xr 3 4 s uX;XW.*X*X*XG.2X2.=.d. X{.& 1 1 z xX].'.=.2.3XwX%X-.K.G.mX,Xs O q y.VX-Xz./ ( F.3X%.",
"' ,Xe.'.).` [.Q o.$.G.pX4.@.$.z.gX_.h.H O.:X,X*X4.P =.S.uX+.T U $.C.!.].d F eXM.].`  .@.}.wX$.| P =X:Xg.;X;.v.3Xe.f.^ $.~ V.wXM ",
"Q.>X' -X>XB.9Xt.O.-.}.4X( +.| I.;X9.mX,X,X:Xe.T.4.P ) 4.6X+.Y b x.M.B jXM.kX|.{ >X[ @.1.|.wX| | :.=XJ.g.VXT.4XpXH.9Xx.W W [.9X%.",
"e.B.y.N.e.-X3X5XV.e.5X2XW.%.-.eXuXJ.yXd.H.:X;XuXW.4.P *X5X4.b ^ I.:X X|.N '.c.qXwX X=.z.3X7XF...v.uXuXG.4X-.[.v.E.=X4X XI.f.o.-X",
"W *.3Xb...W x.7X].&X].' hX]..X0X;.( n.sX5X&.o.z.4XwX[.3XO.|.f.[.C.( ! +.wXC.W ! C.lX}.hXr.6.xX].wX}.[ ( V.mX4X:.^ t.4Xe.=X-XN.cX",
"! } 1Xz.! ( %.3XF OX].OXlXB Q.y.) &.>.6X*X/ $.( C.O.o.:X!.0Xj.' x.S R } 3X%.! | q.'.B ].].8X8Xm {.O.&.+.&.5XW.W &.M G.g.f.G d ` ",
"/ >.6XY.| ..e.XX&Xw.0 > K oXbXy./ / =.sX6X/ / :.[.0XZ.d > s j._.q.F R >.7XH.| S y.8X,XL u a 5.0XlXt.) Y P.aX6X( =.b.9XkXN & @ 5 ",
"#XP.]  X2X6X X' ].0 , 0 < ~.8.}.R.R.qXT.b.2XT.2Xx.{.J O : @ z p.r.V.A.L.t.&XA.R.I.6.{.< ; ; w {.' -XU.$X5Xz.E.*XR.2XJ {.f * 4 O ",
"*.F.Q.&XD.s.F.M.].0 , 8 > OXX.&X@XP.eXC.b.&XR.2Xe.].Q o 2 % z j.h./.F.P.t.6XU.&X'.[  X> > ; 0 Z.6.7XL.$X6X,.T.#XL.2XB.,XH . @ i ",
"F ..'.Z.( ..7.].8Xw.0 = B XXbXa.| ! [ 7X2XW ! ( C.>XC.h $ p h.(.j._ ~ =.3XT.=.| r.8XXX_ > > M qXnXu.R T n.rXE.Y T H ;Xg.).K H J.",
"Z D Y.,.S ! X.].B ].].~.jXV Q.q.D R ! R.U.A ! b Z.5.6.XXZ.|.p.B j.v Z D }...Y } [ ^.I ~.j.M..XI ~.`  .E ) T.z.x T U :XL _.;XJ.;X",
"D &.&XA...F s.|.OX&X|.F jX].!.'.) c ( 2X@X( S ~ }.XXB.|.' {.0.M.Z.W Z S eXV.Y S x..Xj.lX!.r.8Xi.oXV.D A =.5XH.) P =.,X_.;Xg.J.k.",
"OXQ.F w.Q.!.wX}.*.t.&X}.E.z.V.3X{.H.f.f.V.h.f.[.G.z.( 2X4Xb.~ U u.F.y.F.' y.t.I.,X;Xv.x.]. XF.a.Z.3X[.y.[.o._.g.f.6XG.:.O.;XuXP ",
"g jXM.m.oXK eX*.$.~ C.aX>. .&.'.^.0.kXm.B.0X6.9X;.@.U ( 4X;.T U u.oXK jXr.N.H.[ nXr.+.}  XBXa.@.2.P..Xp.kXe.;X`.h.4XT / ) G.*X/ ",
"oXZ.t w m.|.pX..| ] Z.vXA.z.[ h.lX(.[.M J :XB.kX&.U U b.BX&.x Y F ~.0.~.m F ].!.>X' R R F.tX1.1.@.v.,XQ.{.K g.)._.uX/ T 4.sX*X4.",
"].> $ 2 e 8Xt.6Xz.}.kX/.}.Z.C.hXhXlXe @ 3 d gX{.T.K.b.*XN.=XU.-.OXM.jXa 1 O z wX:X_.>.L.tXqX@XS.K.uXbX,Xe 5 6 L mXJ.iX3.;Xv.4.*X",
"hX0 : ; > 8X` 2X5X3X}.e.aXrXeX}.` }.9 r e 0 9X` E.rX4X9X[ [.*X%Xs.F &X, < > r  X' 0X5XuX Xw.3XeXaXI.y.h., e 5 f 4XG fX*XsX*X*X*X",
"`.6., > 6.vXwXP.a.-.7XqXU.2.n.Z.MX-Xz # # z 0XcXT.z.( v.pX3X^ ~ u.F.&Xh O O h aX{.].N.v.:XwX|.V.E.V.0X:Xp , q ' VX;Xn.G O.;XfXG ",
"m lXM.C.XX_ '.] *.~ Z.rX&.! | Z.gXp.:Xr.r.0Xr.C.^ $.=.+.E.2.b U F OXw.F.6.7.I.x.:X7.( ~ H.hXt.] ^ y.wX'.H.H 7.|.v.;XP 4.L v.;XH ",
"].{.6.C.xXi.wXy.` ;.W.qXb.] W G.:X0.nX0X].cXf.-Xb.v W -.6XL.T b w.&X{ hXM.F.cX` :Xq.$.&.}.qX-.( ] I.}.X.cX9X9XyX4.;X;.:.G ;XuX;.",
"$.*.z.I.a.Z.3X3X'.q.3XXX{.q.M.7X9XG.=Xv.N.=XW.qX-XT.o.C.x.}.[ e.&XOXF.F.6.M.Z.&XhX&Xs.| 7XhXT.W e.3XqXW.eX` [.I.-X;X:XJ.v.G.G -X",
"Y @.2XI.! ( t.qXC.eX'._ >X].hX:X&./ -.aXaX,.~ -.I.0X'.cX' '.:Xg.OX{ F *.&XoX{ F w.hX|.wXI.[ {.|.0X7X%...c.BXqX$.O.v.yXN.-X9Xv.yX",
"! ! %Xz.! ( _ |.[ m.|.|.>X5.].t.Y #.} 6X2X/ =.( N.r.H ,Xr.h.^.K Z.F <.D &Xi.F &.q.].B ].oX:XzXI '.w.F s.] qXZ.| =.O.J.L N.O.L J.",
"W s.qXF.*.~ e.|.hX7.8 8 ' {.-Xb./ | ;.dX5X&.| o.x.lX{.j + & ' >XZ.F D  .8XF.<.F { &XoXw.i i 9.`.>Xs.) F c.aX@X! :.O.;XzXL - @ @ ",
"E. Xe.m.pX2X|.` Z.s $ : 0 m.u.E.T.C.,X.X{.3Xb.E.N.'.I.o 2 % y %.[ Z.c.&XM.!.@XZ.&Xi.F.p - 4 5 {.]. X@XA.pX%X&XK.I.-Xl.,Xs @ 5 5 ",
"=.I.m.'.E.c.|.w.0Xu $ 8 + i.x.b.9X-XkX0.e.uX2X4XH.7.f.$ % X y T.6.].@X&X6.Z.&X&X X6.F.r ; 5 , 7.i N <.c.A.h A A.z.|.B 0.s o   5 ",
"l } Y. X| S %.oXoXm.r O K jX8XV.+.T -.=X2X2.U :.f.gX,X' 8 i 0.`.F.~ Z F ].hX<.D X.|.0X5.5 * n 0.f a 9 2 p | c y 2 j m g j 3 5 I ",
"R l A.D.D &.M ].N Q.'.M.<XV (.y.T E A R.1XT Y v 7..Xf >X!.oX+Xg M.c D D F.Z.D ..{ M.5.>Xq.L <XC OXF F Z F 2X,.S S M ^.m h.G.j.,X"
};
